<svg preserveAspectRatio="none" width="100%" height="100%" overflow="visible" style="display: block;" viewBox="0 0 142 79" fill="none" xmlns="http://www.w3.org/2000/svg">
<g id="tenet-logo-red 2" clip-path="url(#clip0_0_4)">
<g id="Group">
<path id="Vector" d="M105.503 32.3122V36.2178H113.963V46.6878H118.73V36.2178H127.208V32.3122H105.503Z" fill="var(--fill-0, #AA1500)"/>
<path id="Vector_2" d="M82.4578 36.2178H99.3972V37.538H83.3096V41.4437H99.3972V42.7639H82.4578V46.6878H104.163V32.3122H82.4578V36.2178Z" fill="var(--fill-0, #AA1500)"/>
<path id="Vector_3" d="M76.3538 41.432L66.9542 32.45L66.8111 32.3122H60.8772V46.6878H65.6433V37.5665L75.0255 46.5518L75.1696 46.6878H81.1199V32.3122H76.3538V41.432Z" fill="var(--fill-0, #AA1500)"/>
<path id="Vector_4" d="M37.8344 46.6878H59.5397V42.7639H42.6004V41.4437H58.688V37.538H42.6004V36.2178H59.5397V32.3122H37.8344V46.6878Z" fill="var(--fill-0, #AA1500)"/>
<path id="Vector_5" d="M14.7915 36.2178H23.2515V46.6878H28.0185V36.2178H36.4969V32.3122H14.7915V36.2178Z" fill="var(--fill-0, #AA1500)"/>
</g>
<path id="Vector_6" d="M102.402 0.0001975C89.6084 0.00029625 78.2386 6.05752 71.0002 15.4486C63.7614 6.05742 52.3907 0.0001975 39.5969 0.0001975C17.7284 0.0005925 0.000395979 17.6847 0 39.4992C0 60.9737 17.179 78.4461 38.5761 78.9866L39.5969 79.0001C52.391 79.0001 63.7616 72.9425 71.0002 63.5506C78.0453 72.6914 89.0044 78.6739 101.381 78.9865L102.402 79C123.93 79 141.445 61.8633 141.987 40.5193L142 39.499C141.999 17.6842 124.271 0.0001975 102.402 0.0001975ZM102.402 75.7639C90.2919 75.7637 79.5676 69.8548 72.9617 60.7712C74.642 58.1538 76.0247 55.328 77.0544 52.3377H73.6042C72.8865 54.2282 72.0099 56.0398 70.9999 57.7642C69.9899 56.0397 69.1133 54.2282 68.3956 52.3377H64.9463C65.9759 55.3274 67.3597 58.1519 69.0396 60.769C62.4335 69.854 51.708 75.7639 39.5969 75.7639C19.5201 75.7634 3.24435 59.5265 3.24435 39.4992C3.24475 19.4723 19.5204 3.23693 39.5969 3.23653C51.7071 3.23653 62.4321 9.14504 69.0384 18.2284C67.358 20.846 65.9751 23.6721 64.9454 26.6626H68.3956C69.1134 24.7718 69.9902 22.9599 71.0003 21.2351C72.0105 22.9598 72.8873 24.7717 73.605 26.6626H77.0554C76.0256 23.6721 74.6427 20.8459 72.9622 18.2283C79.568 9.14514 90.2921 3.23653 102.402 3.23643C122.479 3.23643 138.755 19.4719 138.755 39.4991C138.755 59.5263 122.479 75.7639 102.402 75.7639Z" fill="var(--fill-0, #AA1500)"/>
</g>
<defs>
<clipPath id="clip0_0_4">
<rect width="142" height="79" fill="white"/>
</clipPath>
</defs>
</svg>
